<?xml version="1.0" encoding="UTF-8"?>
<svg width="1440px" height="396px" viewBox="0 0 1440 396" version="1.1" xmlns="http://www.w3.org/2000/svg" xmlns:xlink="http://www.w3.org/1999/xlink">
    <title>86AC36CD-FFA7-4380-B284-1ACA30449869</title>
    <defs>
        <polygon id="path-1" points="0.42222909 0.239466164 262.851331 0.239466164 262.851331 262.839807 0.42222909 262.839807"></polygon>
        <polygon id="path-3" points="0.547282675 0.311924255 132.591873 0.311924255 132.591873 132.4424 0.547282675 132.4424"></polygon>
    </defs>
    <g id="Page-1" stroke="none" stroke-width="1" fill="none" fill-rule="evenodd">
        <g id="About-Us_1440x1024" transform="translate(0.000000, -226.000000)">
            <g id="Group-57" transform="translate(0.000000, 226.000000)">
                <g id="Group-3" transform="translate(1176.000000, 133.000000)">
                    <mask id="mask-2" fill="white">
                        <use xlink:href="#path-1"></use>
                    </mask>
                    <g id="Clip-2"></g>
                    <path d="M262.851331,0.239466164 L0.42222909,0.239466164 L0.42222909,262.84008 C145.369677,262.84008 262.851331,145.270652 262.851331,0.239466164" id="Fill-1" fill="#4141FF" mask="url(#mask-2)"></path>
                </g>
                <line x1="22" y1="127.5" x2="281" y2="127.5" id="Stroke-4" stroke="#50C3FF" stroke-width="10.673" stroke-linecap="round"></line>
                <path d="M0,395 L0,264 L131,264 C131,336.354635 72.3498484,395 0,395" id="Fill-6" fill="#FFD741"></path>
                <path d="M166,197.5 C166,180.655642 179.655642,167 196.5,167 C213.344358,167 227,180.655642 227,197.5 C227,214.345268 213.344358,228 196.5,228 C179.655642,228 166,214.345268 166,197.5" id="Fill-8" fill="#4141FF"></path>
                <path d="M349.123579,264 C349.123579,312.576046 309.893119,351.956208 261.501365,351.956208 C213.10961,351.956208 173.880059,312.576046 173.880059,264 L131,264 C131,336.350107 189.426332,395 261.501365,395 C333.573668,395 392,336.350107 392,264 L349.123579,264 Z" id="Fill-10" fill="#FF6E5A"></path>
                <path d="M174,264 L262,264 L262,352 C213.399603,352 174,312.600231 174,264" id="Fill-12" fill="#FFD741"></path>
                <path d="M393,2 L393,133 L262,133 C262,60.645608 320.649994,2 393,2" id="Fill-14" fill="#FF9632"></path>
                <path d="M393,46 L393,133 L306,133 C306,84.9477641 344.950512,46 393,46" id="Fill-16" fill="#50C3FF"></path>
                <path d="M393,134 L393,177.043901 C344.423954,177.043901 305.043792,216.423344 305.043792,265 L262,265 C262,192.649575 320.649893,134 393,134" id="Fill-18" fill="#4141FF"></path>
                <path d="M393,177 L393,265 L305,265 C305,216.39869 344.399769,177 393,177" id="Fill-20" fill="#FFD741"></path>
                <path d="M130,133 L0,133 L0,3 C71.8029169,3 130,61.2023681 130,133" id="Fill-22" fill="#DCFA64"></path>
                <path d="M0,7 C69.5880415,7 126,63.1881016 126,132.5 C126,201.811898 69.5880415,258 0,258" id="Stroke-24" stroke="#FF9632" stroke-width="10.804"></path>
                <path d="M1308,264 L1177,264 L1177,133 C1249.35513,133 1308,191.649648 1308,264" id="Fill-26" fill="#FF9632"></path>
                <path d="M913,133 L782,133 L782,2 C854.354709,2 913,60.6500858 913,133" id="Fill-28" fill="#FF6E5A"></path>
                <path d="M870,133 L783,133 L783,46 C831.052415,46 870,84.9507401 870,133" id="Fill-30" fill="#50C3FF"></path>
                <g id="Group-34" transform="translate(1307.000000, 0.000000)">
                    <mask id="mask-4" fill="white">
                        <use xlink:href="#path-3"></use>
                    </mask>
                    <g id="Clip-33"></g>
                    <path d="M132.592329,132.4424 L0.547282675,132.4424 L0.547282675,0.311468225 C73.4803319,0.311468225 132.592329,59.4676295 132.592329,132.4424" id="Fill-32" fill="#FF6E5A" mask="url(#mask-4)"></path>
                </g>
                <path d="M1396,133 L1308,133 L1308,45 C1356.60492,45 1396,84.3991607 1396,133" id="Fill-35" fill="#DCFA64"></path>
                <path d="M1044,265 L1044,232.984472 C1084.83648,232.984472 1118.95836,203.692371 1126.45165,165.015528 L1044,165.015528 L1044,133 L1160,133 L1160,149.007764 C1160,212.965878 1107.96189,265 1044,265" id="Fill-37" fill="#FF9632"></path>
                <path d="M914.000456,133 C841.651412,133 783,191.650705 783,264 C783,336.350206 841.651412,395 914.000456,395 C986.349499,395 1045,336.350206 1045,264 C1045,191.650705 986.349499,133 914.000456,133 M914.000456,142.844979 C946.361929,142.844979 976.786125,155.447354 999.66988,178.331189 C1022.55272,201.214112 1035.15506,231.638414 1035.15506,264 C1035.15506,296.361586 1022.55272,326.786799 999.66988,349.669723 C976.786125,372.553558 946.361929,385.155932 914.000456,385.155932 C881.638071,385.155932 851.214786,372.553558 828.331031,349.669723 C805.448187,326.786799 792.845856,296.361586 792.845856,264 C792.845856,231.638414 805.448187,201.214112 828.331031,178.331189 C851.214786,155.447354 881.638071,142.844979 914.000456,142.844979" id="Fill-39" fill="#FF9632"></path>
                <path d="M1045,265 L1045,133 L913,133 C913,205.907581 972.097726,265 1045,265" id="Fill-41" fill="#4141FF"></path>
                <path d="M783,2 L783,264 L521,264 C521,119.289819 638.299913,2 783,2" id="Fill-43" fill="#FF9632"></path>
                <path d="M690,171 C690,251.634168 624.633462,317 543.999545,317 C463.366538,317 398,251.634168 398,171 C398,90.3658318 463.366538,25 543.999545,25 C624.633462,25 690,90.3658318 690,171 Z" id="Stroke-45" stroke="#DCFC57" stroke-width="10.804"></path>
                <path d="M783,263 L783,395 L651,395 C651,322.092064 710.09778,263 783,263" id="Fill-47" fill="#50C3FF"></path>
                <path d="M519,303.609796 C496.476303,303.609796 478.150565,285.326456 478.150565,262.852842 C478.150565,240.375592 496.476303,222.091342 519,222.091342 C541.523697,222.091342 559.849435,240.375592 559.849435,262.852842 C559.849435,268.398043 558.732957,273.686808 556.71327,278.509078 C555.509296,281.388072 553.983595,284.102474 552.174444,286.60227 C544.757382,296.894265 532.650201,303.609796 519,303.609796 L519,303.609796 Z M515.440941,327.811169 C505.614109,335.305102 494.851258,341.3559 483.517864,346.154526 L483.517864,372 C507.379511,363.552162 529.144003,349.499106 547.024061,331.649525 C564.489428,314.212787 582.814254,291.157192 583.943493,265.563607 C583.982683,264.666081 584,263.759462 584,262.852842 C584,227.090935 554.838498,198 519,198 C483.161502,198 454,227.090935 454,262.852842 C454,297.418049 481.252096,325.756953 515.440941,327.604747 L515.440941,327.811169 Z" id="Fill-49" fill="#131415"></path>
                <path d="M519,303.609796 C496.476303,303.609796 478.150565,285.326456 478.150565,262.852842 C478.150565,240.375592 496.476303,222.091342 519,222.091342 C541.523697,222.091342 559.849435,240.375592 559.849435,262.852842 C559.849435,268.398043 558.732957,273.686808 556.71327,278.509078 C555.509296,281.388072 553.983595,284.102474 552.174444,286.60227 C544.757382,296.894265 532.650201,303.609796 519,303.609796 Z M515.440941,327.811169 C505.614109,335.305102 494.851258,341.3559 483.517864,346.154526 L483.517864,372 C507.379511,363.552162 529.144003,349.499106 547.024061,331.649525 C564.489428,314.212787 582.814254,291.157192 583.943493,265.563607 C583.982683,264.666081 584,263.759462 584,262.852842 C584,227.090935 554.838498,198 519,198 C483.161502,198 454,227.090935 454,262.852842 C454,297.418049 481.252096,325.756953 515.440941,327.604747 L515.440941,327.811169 Z" id="Stroke-51" stroke="#FF6E5A" stroke-width="8.283"></path>
                <path d="M1307.5,264 L1306.15879,254.003265 L1307.5,254.059718 C1339.96959,254.059718 1370.49701,241.415154 1393.45517,218.455169 C1416.41515,195.496095 1429.05972,164.969585 1429.05972,132.5 C1429.05972,100.030415 1416.41515,69.5039052 1393.45517,46.5439202 C1370.49701,23.5839352 1339.96959,10.9402822 1307.5,10.9402822 C1275.03041,10.9402822 1244.50391,23.5839352 1221.54483,46.5439202 C1198.58485,69.5039052 1185.94028,101.294234 1185.94028,133.763819 L1176,133.763819 C1176,98.639121 1189.67893,64.3521129 1214.51552,39.5155206 C1239.35211,14.6780177 1272.3753,1 1307.5,1 C1342.6247,1 1375.64789,14.6780177 1400.48448,39.5155206 C1425.32107,64.3521129 1439,97.3743915 1439,132.5 C1439,167.624698 1425.32107,200.646977 1400.48448,225.484479 C1375.64789,250.321982 1342.6247,264 1307.5,264" id="Fill-53" fill="#FF9632"></path>
                <path d="M1242,264 L1308,264 L1308,330 C1271.54686,330 1242,300.451203 1242,264" id="Fill-55" fill="#FFD741"></path>
            </g>
        </g>
    </g>
</svg>