<svg width="399" height="499" viewBox="0 0 399 499" fill="none" xmlns="http://www.w3.org/2000/svg">
<path d="M41.5981 261C75.0981 264 96.0379 264 127.043 264C144.285 264 161.026 261.683 177.598 258C191.803 254.843 209.655 250.374 224.098 245C250.68 235.109 276.396 227.601 301.598 215C324.439 203.58 348.151 192.421 371.598 182C396.567 170.903 422.575 157.611 445.709 142.889C459.077 134.382 475.735 131.213 489.043 122C500.506 114.064 513.762 108.866 524.598 100C533.316 92.8676 543.185 84.6279 553.598 80C561.171 76.6342 575.909 71.1893 581.709 66C591.953 56.8348 607.15 54.3592 618.598 47C631.571 38.6606 647.529 34.8063 659.043 24.4444C666.627 17.6186 726.598 -20 744.598 -73" stroke="#286FFF" stroke-width="16" stroke-linecap="round" stroke-linejoin="round"/>
<path d="M688.598 360C675.421 360 663.017 358 650.598 358C637.818 358 624.686 352 611.598 352C606.382 352 599.055 349.123 593.487 348.111C586.504 346.841 579.15 347.356 572.598 344.444C560.528 339.08 545.113 341.397 533.598 335C518.88 326.823 499.672 326.426 484.598 318.889C468.554 310.866 452.776 305.19 436.598 298C402.945 283.043 367.667 274.09 334.598 257.556C320.102 250.308 306.783 243.295 292.598 236C273.141 225.993 254.658 215.374 235.598 205.111C220.057 196.743 206.786 178.842 190.154 172.444C180.192 168.613 173.018 157.392 163.043 153.556C156.256 150.945 151.181 143.453 145.598 139.111C120.212 119.366 95.0875 98.4892 72.5984 76C60.8933 64.2949 53.2841 48.6857 41.5984 37C33.6196 29.0212 27.5522 17.389 23.771 6" stroke="#6E44FF" stroke-width="16" stroke-linecap="round" stroke-linejoin="round"/>
<path d="M494.598 -272C470.594 -270.909 444.801 -257.988 424.598 -245C415.505 -239.154 404.439 -234.991 396.154 -228.778C366.95 -206.875 331.971 -195.119 303.598 -171.111C292.316 -161.565 280.49 -152.631 268.598 -143.556C256.895 -134.624 240.464 -123.515 231.043 -112C223.085 -102.274 209.769 -88.6502 198.598 -82.4444C185.703 -75.2806 178.418 -62.7505 167.043 -54C156.94 -46.2288 147.996 -31.9112 139.82 -22.2222C134.278 -15.6533 128.049 -10.057 123.487 -2.88889C116.91 7.44671 108.441 25.8678 97.7094 32C90.2322 36.2727 83.7519 51.5233 79.5982 59C73.2269 70.4684 63.9315 81.0001 58.5982 93C53.7911 103.816 42.354 111.377 37.0427 122C32.4355 131.214 29.1959 140.655 25.0427 150C22.1493 156.51 17.4122 164.675 16.5982 172C15.7026 180.061 14.0981 199.11 14.0981 191" stroke="#286FFF" stroke-width="16" stroke-linecap="round" stroke-linejoin="round"/>
<path d="M790.598 120C765.879 110.112 768.361 82.5761 753.043 65.5554C748.979 61.0405 745.765 52.6523 742.598 47.111C739.921 42.4257 735.91 39.1391 732.598 34.9999C724.17 24.4646 712.036 16.3231 704.487 4.99988C696.355 -7.19771 683.049 -21.6509 672.154 -31.5557C661.905 -40.8723 647.454 -46.1154 637.043 -54.4446C619.639 -68.3677 603.184 -82.8717 583.709 -94.0001C560.612 -107.199 547.506 -133.374 523.598 -144C509.996 -150.045 497.102 -162.049 486.598 -172C479.166 -179.041 467.405 -185.809 458.598 -190.445C452.387 -193.713 447.022 -198.344 440.598 -201.556C428.877 -207.416 417.709 -213.556 405.487 -218C398.263 -220.627 389.531 -224.275 383.598 -228.889C377.268 -233.812 364.827 -232.984 357.598 -237C346.154 -243.358 330.714 -243.06 318.598 -248.445C304.592 -254.669 288.569 -259.384 273.098 -262.688" stroke="#FFDD00" stroke-width="16" stroke-linecap="round" stroke-linejoin="round"/>
<path d="M55.1017 -70.0808C60.3981 -79.168 69.1497 -95.719 73.0068 -105.195C76.864 -114.67 85.4471 -123.268 91.3152 -131.752C98.4109 -142.01 109.401 -148.621 116.963 -158.713C122.281 -165.809 128.281 -174.045 134.304 -180.426C145.025 -191.788 160.684 -199.121 173.179 -208.356C182.882 -215.527 191.104 -222.482 201.407 -228.375C205.964 -230.981 211.901 -230.504 216.167 -233.46C240.475 -250.303 268.911 -260.186 296.095 -271.641C299.069 -272.894 304.228 -271.964 307.386 -271.964C312.316 -271.964 315.587 -274.663 320.13 -276C324.19 -277.195 328.752 -280.529 332.873 -280.682C340.136 -280.951 369.721 -284 376.986 -284C398.144 -284 397.046 -280.682 418.204 -280.682C429.22 -280.682 439.132 -275.782 449.659 -272.771C477.386 -264.843 505.9 -259.526 533.539 -251.622C561.55 -243.613 587.269 -228.124 611.935 -213.038C632.866 -200.236 651.193 -180.745 669.36 -164.444C684.076 -151.239 698.958 -138.031 711.461 -122.63C720.356 -111.673 726.284 -99.0949 732.431 -86.7901C738.103 -75.4359 745.541 -63.7857 749.852 -51.9186C757.337 -31.3192 762.733 -11.3658 771.629 8.7836C777.02 20.9955 780.157 32.5143 780.646 46.7255C781.145 61.188 787.598 76.8682 787.598 91.3612V153.988C787.598 167.085 780.339 177.888 780.339 191.213C780.339 196.826 778.454 206.084 775.312 211.194C771.74 217.004 772.109 222.541 769.048 228.668C762.131 242.513 750.702 253.302 746.708 268.401C744.593 276.399 737.017 282.013 734.205 289.853C730.654 299.752 723.587 315.797 716.462 323.82C711.851 329.011 708.449 336.232 704.202 341.697C700.359 346.643 698.769 352.674 693.122 355.999C687.89 359.079 684.026 367.036 678.832 370.3C673.024 373.95 672.402 377.855 666.329 381.026C656.687 386.061 655.495 393.219 646.777 399.635C630.809 411.386 614.416 423.523 597.981 434.91C576.983 449.459 549.091 460.351 525.218 470.412C509.6 476.993 497.647 482.029 481.276 485.845C454.163 492.164 424.661 489.397 396.993 489.397C384.286 489.397 370.411 490.032 358.037 487.217C338.324 482.733 316.804 485.58 297.385 479.549C288.709 476.854 276.806 473.911 267.866 473.414C260.93 473.028 254.369 469.938 247.541 468.732C235.756 466.651 225.59 462.626 214.796 457.996C202.781 452.843 191.942 444.899 181.486 437.654C168.137 428.405 158 413.915 143.659 405.77C133.368 399.924 122.198 387.648 113.656 379.293C104.342 370.183 94.185 361.843 85.6695 352.009C78.0076 343.161 73.266 331.875 67.1998 321.981C61.6685 312.96 60.0544 302.748 55.1824 293.971C50.8445 286.156 48.0087 276.919 45.02 268.544C43.5193 264.338 41.724 260.901 40.0195 256.92C38.2315 252.744 35.3202 248.905 33.8092 244.973C27.677 229.016 17.7624 212.87 15.3395 195.895C14.0478 186.846 10.9035 175.784 10.9035 166.835C10.9035 159.107 8 154.234 8 146.494C8 131.5 8.81226 108.638 8.81226 98.569C8.81226 88.5 11.9455 83.4655 12.5747 77.1165C13.4298 68.4863 14.5329 58.9714 14.5329 50.3009C14.5329 45.9151 16.1471 43.9605 16.1471 39.5747C16.1471 35.9153 19.6141 32.381 19.6141 28.7217C19.6141 23.6026 22.0404 20.0247 22.5177 15.7256C23.1867 9.69894 24.7866 3.70398 26.5503 -2.03302C27.7717 -6.00577 26.0159 -10.4795 27.1956 -14.4641C28.3793 -18.4625 29.7765 -21.3748 29.7765 -25.6036C29.7765 -37.6693 45.0462 -46.4716 45.7459 -58.3763C46.0348 -63.2915 52.7618 -66.0662 55.1017 -70.0808Z" stroke="#286FFF" stroke-width="16" stroke-linecap="round" stroke-linejoin="round"/>
<path d="M562.598 -240C533.702 -225.348 509.535 -206.315 483.709 -187.111C475.848 -181.266 458.76 -172.364 454.598 -163C452.652 -158.621 447.906 -155.783 445.043 -152C439.655 -144.881 434.975 -137.169 429.598 -130C415.216 -110.824 401.961 -91.1502 387.598 -72C376.93 -57.7754 367.291 -42.9835 356.598 -28.8889C342.748 -10.6324 326.668 6.11682 313.709 25C292.23 56.2989 266.624 87.5113 251.487 122.111C224.121 184.663 193.056 245.428 170.154 309.556C164.927 324.192 158.855 338.421 154.598 353.556C152.009 362.762 144.623 393.057 144.098 402.5" stroke="#FF6633" stroke-width="16" stroke-linecap="round" stroke-linejoin="round"/>
<path d="M774.598 184C768.68 181.041 764.833 174.188 759.598 170C753.912 165.451 747.55 161.301 742.154 156.444C734.291 149.368 724.043 143.679 715.598 137.111C705.335 129.128 692.979 121.426 681.043 116C656.438 104.816 633.653 91.2527 610.598 78.4444C588.016 65.8989 563.502 58.2909 539.043 49.5556C525.254 44.6312 511.781 35.7526 497.709 32C484.715 28.5348 462.963 21.0919 452.154 12.4444C438.079 1.18478 414.455 -2.40386 397.598 -9C376.332 -17.3217 349.905 -28.3065 327.043 -30C319.154 -30.5844 310.201 -36.6155 302.154 -38.4444C292.434 -40.6534 281.877 -43.8246 272.487 -47.1111C244.188 -57.0159 211.003 -64 181.043 -64C137.894 -64 94.7463 -64 51.5981 -64" stroke="#14EDAC" stroke-width="16" stroke-linecap="round" stroke-linejoin="round"/>
<path d="M111.598 -152C111.598 -94.7364 109.532 -47.5616 124.154 8C132.726 40.5723 138.49 71.3018 150.098 103C165.423 144.848 188.525 189.52 212.098 227.5C223.235 245.443 236.128 260.238 248.709 277.222C270.35 306.437 292.602 334.782 315.598 362.889C332.468 383.507 358.189 401.93 377.598 420C385.453 427.314 392.917 432.064 401.098 439C425.259 459.484 441.398 477.336 469 488.361" stroke="#FFDD00" stroke-width="16" stroke-linecap="round" stroke-linejoin="round"/>
<path d="M58.5981 300C73.5981 309 82.6049 316.779 97.5981 320.111C103.933 321.519 110.811 326.814 116.598 329.556C121.383 331.822 129.318 337.707 134.598 338C145.563 338.609 156.338 350 167.598 350C178.532 350 190.093 359.382 200.598 360C212.538 360.702 227.146 363.867 239.487 366.111C252.998 368.568 266.446 371.607 280.598 372C298.89 372.508 317.015 376 335.598 376C352.694 376 369.3 378 386.598 378C413.326 378 440.388 376.749 466.598 376C486.508 375.431 505.592 370 525.487 370C540.622 370 555.889 366.817 570.598 366C585.425 365.176 599.333 358 613.598 358C628.496 358 649.485 353.001 662.598 346.444C673.727 340.88 686.404 339.219 697.598 333C703.473 329.736 708.639 325.599 714.598 322.444C719.231 319.992 721.061 314 726.598 314" stroke="white" stroke-width="16" stroke-linecap="round" stroke-linejoin="round"/>
</svg>
