<svg width="32" height="32" viewBox="0 0 32 32" fill="none" xmlns="http://www.w3.org/2000/svg">
<g clip-path="url(#clip0)">
<path fill-rule="evenodd" clip-rule="evenodd" d="M30 17C30 20.0928 27.4928 22.6 24.4 22.6H18.8L10.4 31V22.6H7.6C4.50721 22.6 2 20.0928 2 17V8.6C2 5.50721 4.50721 3 7.6 3H24.4C27.4928 3 30 5.50721 30 8.6V17ZM9.00017 14.2001C8.22697 14.2001 7.60017 14.8269 7.60017 15.6001C7.60017 16.3733 8.22697 17.0001 9.00017 17.0001H17.4002C18.1734 17.0001 18.8002 16.3733 18.8002 15.6001C18.8002 14.8269 18.1734 14.2001 17.4002 14.2001H9.00017ZM7.60017 10C7.60017 9.22684 8.22697 8.60004 9.00017 8.60004H23.0002C23.7734 8.60004 24.4002 9.22684 24.4002 10C24.4002 10.7732 23.7734 11.4 23.0002 11.4H9.00017C8.22697 11.4 7.60017 10.7732 7.60017 10Z" fill="black"/>
</g>
<defs>
<clipPath id="clip0">
<rect width="32" height="32" fill="white"/>
</clipPath>
</defs>
</svg>
