<svg width="32" height="32" viewBox="0 0 32 32" fill="none" xmlns="http://www.w3.org/2000/svg">
<path fill-rule="evenodd" clip-rule="evenodd" d="M28 6.66671C28 5.19395 26.8061 4.00004 25.3333 4.00004H24V1.33337H21.3333V4.00004H10.6667V1.33337H8V4.00004H6.66667C5.19391 4.00004 4 5.19395 4 6.66671V25.3334C4 26.8061 5.19391 28 6.66667 28H25.3333C26.8061 28 28 26.8061 28 25.3334V6.66671ZM6.66667 12H25.3333V24C25.3333 24.7364 24.7364 25.3333 24 25.3333H8C7.26362 25.3333 6.66667 24.7364 6.66667 24V12ZM14.6667 14.6667H9.33333V20H14.6667V14.6667Z" fill="black"/>
</svg>
