<svg width="32" height="32" viewBox="0 0 32 32" fill="none" xmlns="http://www.w3.org/2000/svg">
<path fill-rule="evenodd" clip-rule="evenodd" d="M13.3333 5.33333C13.3333 4.59695 13.9303 4 14.6667 4H17.3333C18.0697 4 18.6667 4.59695 18.6667 5.33333V26.6667C18.6667 27.403 18.0697 28 17.3333 28H14.6667C13.9303 28 13.3333 27.403 13.3333 26.6667V5.33333ZM4 12C4 11.2636 4.59695 10.6667 5.33333 10.6667H8C8.73638 10.6667 9.33333 11.2636 9.33333 12V26.6667C9.33333 27.403 8.73638 28 8 28H5.33333C4.59696 28 4 27.403 4 26.6667V12ZM24 17.3333C23.2636 17.3333 22.6667 17.9303 22.6667 18.6667V26.6667C22.6667 27.403 23.2636 28 24 28H26.6667C27.403 28 28 27.403 28 26.6667V18.6667C28 17.9303 27.403 17.3333 26.6667 17.3333H24Z" fill="black"/>
</svg>
