<svg width="48" height="47" viewBox="0 0 48 47" fill="none" xmlns="http://www.w3.org/2000/svg">
<mask id="mask0_10456_11895" style="mask-type:alpha" maskUnits="userSpaceOnUse" x="0" y="0" width="48" height="47">
<rect x="0.664062" y="0.166626" width="46.6667" height="46.6667" fill="#D9D9D9"/>
</mask>
<g mask="url(#mask0_10456_11895)">
<path d="M23.9991 42.9444C21.3417 42.9444 18.8302 42.434 16.4644 41.4132C14.0987 40.3924 12.0327 38.9988 10.2665 37.2326C8.50029 35.4664 7.10677 33.4005 6.08594 31.0347C5.0651 28.669 4.55469 26.1574 4.55469 23.5C4.55469 20.8102 5.0651 18.2905 6.08594 15.941C7.10677 13.5914 8.50029 11.5336 10.2665 9.76735C12.0327 8.00114 14.0987 6.60763 16.4644 5.58679C18.8302 4.56596 21.3417 4.05554 23.9991 4.05554C26.6889 4.05554 29.2086 4.56596 31.5582 5.58679C33.9077 6.60763 35.9656 8.00114 37.7318 9.76735C39.498 11.5336 40.8915 13.5914 41.9123 15.941C42.9332 18.2905 43.4436 20.8102 43.4436 23.5C43.4436 26.1574 42.9332 28.669 41.9123 31.0347C40.8915 33.4005 39.498 35.4664 37.7318 37.2326C35.9656 38.9988 33.9077 40.3924 31.5582 41.4132C29.2086 42.434 26.6889 42.9444 23.9991 42.9444ZM23.9991 38.9583C24.8417 37.7917 25.5709 36.5764 26.1866 35.3125C26.8024 34.0486 27.3047 32.7037 27.6936 31.2778H20.3047C20.6936 32.7037 21.1959 34.0486 21.8116 35.3125C22.4274 36.5764 23.1565 37.7917 23.9991 38.9583ZM18.9436 38.1805C18.3602 37.1111 17.8498 36.0011 17.4123 34.8507C16.9748 33.7002 16.6102 32.5092 16.3186 31.2778H10.5825C11.5223 32.8981 12.697 34.3079 14.1068 35.5069C15.5165 36.706 17.1288 37.5972 18.9436 38.1805ZM29.0547 38.1805C30.8695 37.5972 32.4818 36.706 33.8915 35.5069C35.3012 34.3079 36.476 32.8981 37.4158 31.2778H31.6797C31.388 32.5092 31.0234 33.7002 30.5859 34.8507C30.1484 36.0011 29.638 37.1111 29.0547 38.1805ZM8.92969 27.3889H15.5408C15.4436 26.7407 15.3707 26.1007 15.322 25.4687C15.2734 24.8368 15.2491 24.1805 15.2491 23.5C15.2491 22.8194 15.2734 22.1632 15.322 21.5312C15.3707 20.8993 15.4436 20.2592 15.5408 19.6111H8.92969C8.76765 20.2592 8.64612 20.8993 8.5651 21.5312C8.48409 22.1632 8.44358 22.8194 8.44358 23.5C8.44358 24.1805 8.48409 24.8368 8.5651 25.4687C8.64612 26.1007 8.76765 26.7407 8.92969 27.3889ZM19.4297 27.3889H28.5686C28.6658 26.7407 28.7387 26.1007 28.7873 25.4687C28.8359 24.8368 28.8602 24.1805 28.8602 23.5C28.8602 22.8194 28.8359 22.1632 28.7873 21.5312C28.7387 20.8993 28.6658 20.2592 28.5686 19.6111H19.4297C19.3325 20.2592 19.2596 20.8993 19.2109 21.5312C19.1623 22.1632 19.138 22.8194 19.138 23.5C19.138 24.1805 19.1623 24.8368 19.2109 25.4687C19.2596 26.1007 19.3325 26.7407 19.4297 27.3889ZM32.4575 27.3889H39.0686C39.2306 26.7407 39.3521 26.1007 39.4332 25.4687C39.5142 24.8368 39.5547 24.1805 39.5547 23.5C39.5547 22.8194 39.5142 22.1632 39.4332 21.5312C39.3521 20.8993 39.2306 20.2592 39.0686 19.6111H32.4575C32.5547 20.2592 32.6276 20.8993 32.6762 21.5312C32.7248 22.1632 32.7491 22.8194 32.7491 23.5C32.7491 24.1805 32.7248 24.8368 32.6762 25.4687C32.6276 26.1007 32.5547 26.7407 32.4575 27.3889ZM31.6797 15.7222H37.4158C36.476 14.1018 35.3012 12.6921 33.8915 11.493C32.4818 10.294 30.8695 9.40276 29.0547 8.81943C29.638 9.88888 30.1484 10.9988 30.5859 12.1493C31.0234 13.2998 31.388 14.4907 31.6797 15.7222ZM20.3047 15.7222H27.6936C27.3047 14.2963 26.8024 12.9514 26.1866 11.6875C25.5709 10.4236 24.8417 9.20832 23.9991 8.04165C23.1565 9.20832 22.4274 10.4236 21.8116 11.6875C21.1959 12.9514 20.6936 14.2963 20.3047 15.7222ZM10.5825 15.7222H16.3186C16.6102 14.4907 16.9748 13.2998 17.4123 12.1493C17.8498 10.9988 18.3602 9.88888 18.9436 8.81943C17.1288 9.40276 15.5165 10.294 14.1068 11.493C12.697 12.6921 11.5223 14.1018 10.5825 15.7222Z" fill="url(#paint0_linear_10456_11895)"/>
</g>
<defs>
<linearGradient id="paint0_linear_10456_11895" x1="7.51276" y1="10.9294" x2="36.1108" y2="37.9379" gradientUnits="userSpaceOnUse">
<stop stop-color="#ADADAD"/>
<stop offset="1" stop-color="#707070"/>
</linearGradient>
</defs>
</svg>
