<svg width="54" height="54" viewBox="0 0 54 54" fill="none" xmlns="http://www.w3.org/2000/svg">
<mask id="mask0_10456_5257" style="mask-type:alpha" maskUnits="userSpaceOnUse" x="0" y="0" width="54" height="54">
<rect x="0.328125" y="0.333496" width="53.3333" height="53.3333" fill="#D9D9D9"/>
</mask>
<g mask="url(#mask0_10456_5257)">
<path d="M23.9119 30.9586C24.7462 31.8266 25.7974 32.2346 27.0655 32.1825C28.3337 32.1305 29.2514 31.653 29.8188 30.7502L38.2786 17.5732C38.5789 17.087 38.5372 16.6443 38.1535 16.245C37.7697 15.8457 37.3442 15.8023 36.877 16.1148L24.2122 24.9169C23.3446 25.5419 22.869 26.4881 22.7856 27.7555C22.7021 29.0228 23.0776 30.0905 23.9119 30.9586ZM13.1994 40.3336C12.4652 40.3336 11.7894 40.1686 11.1721 39.8388C10.5547 39.5089 10.0624 39.0141 9.69533 38.3544C8.82766 36.7225 8.16021 35.0298 7.693 33.2763C7.22579 31.5228 6.99219 29.7086 6.99219 27.8336C6.99219 24.9516 7.5178 22.2433 8.56902 19.7086C9.62025 17.1739 11.0469 14.969 12.849 13.094C14.6511 11.219 16.7702 9.73462 19.2064 8.64087C21.6426 7.54712 24.2456 7.00024 27.0155 7.00024C29.752 7.00024 32.3217 7.53844 34.7245 8.61483C37.1273 9.69122 39.2297 11.1582 41.0318 13.0159C42.8339 14.8735 44.2689 17.0436 45.3368 19.5263C46.4047 22.0089 46.9554 24.6739 46.9887 27.5211C47.0221 29.4308 46.8135 31.2971 46.363 33.12C45.9125 34.943 45.22 36.6877 44.2856 38.3544C43.9185 39.0141 43.4263 39.5089 42.8089 39.8388C42.1915 40.1686 41.5157 40.3336 40.7815 40.3336H13.1994Z" fill="url(#paint0_linear_10456_5257)"/>
</g>
<defs>
<linearGradient id="paint0_linear_10456_5257" x1="10.0348" y1="12.8921" x2="34.3965" y2="40.5013" gradientUnits="userSpaceOnUse">
<stop stop-color="#ADADAD"/>
<stop offset="1" stop-color="#707070"/>
</linearGradient>
</defs>
</svg>
